<?xml version="1.0" encoding="UTF-8"?>
<svg width="134px" height="23px" viewBox="0 0 134 23" version="1.1" xmlns="http://www.w3.org/2000/svg" xmlns:xlink="http://www.w3.org/1999/xlink">
    <title>Group</title>
    <g id="all_logos" stroke="none" stroke-width="1" fill="none" fill-rule="evenodd">
        <g id="printme" transform="translate(-60.000000, -64.000000)" fill="#111111" fill-rule="nonzero">
            <g id="SvgjsG3639" transform="translate(60.000000, 64.000000)">
                <path d="M3.57591057,6.66173362 C3.88195697,6.24031008 4.40948431,5.86346018 5.15849261,5.53118393 C5.9075009,5.19890768 6.72496694,5.03276956 7.61089073,5.03276956 C8.98004568,5.03276956 10.1679889,5.34073291 11.1747205,5.95665962 C12.1814521,6.57258633 12.950595,7.41138125 13.4821493,8.4730444 C14.0137036,9.53470754 14.2794807,10.713883 14.2794807,12.0105708 C14.2794807,13.3072586 14.0137036,14.4864341 13.4821493,15.5480973 C12.950595,16.6097604 12.1814521,17.4485553 11.1747205,18.064482 C10.1679889,18.6804087 8.98004568,18.9883721 7.61089073,18.9883721 C6.69275153,18.9883721 5.88333934,18.8303383 5.18265417,18.5142706 C4.48196899,18.198203 3.94638779,17.7970402 3.57591057,17.3107822 L3.57591057,23 L0,23 L0,5.32452431 L3.57591057,5.32452431 L3.57591057,6.66173362 L3.57591057,6.66173362 Z M4.42156509,14.7457717 C5.08198101,15.4508457 5.9679048,15.8033827 7.07933646,15.8033827 C8.20687583,15.8033827 9.09682654,15.4508457 9.7491886,14.7457717 C10.4015507,14.0406977 10.7277317,13.1289641 10.7277317,12.0105708 C10.7277317,10.9245948 10.3934968,10.0250176 9.72502705,9.31183932 C9.05655728,8.59866103 8.17466042,8.24207188 7.07933646,8.24207188 C5.95179709,8.24207188 5.06184638,8.57840028 4.40948431,9.25105708 C3.75712225,9.92371388 3.43094122,10.8435518 3.43094122,12.0105708 C3.43094122,13.1289641 3.76114918,14.0406977 4.42156509,14.7457717 Z M23.5575189,8.81342495 C22.8648876,8.98361522 22.2286332,9.38477801 21.6487559,10.0169133 C21.0688785,10.6490486 20.7789398,11.5729387 20.7789398,12.7885835 L20.7789398,18.6966173 L17.1788677,18.6966173 L17.1788677,5.32452431 L20.7789398,5.32452431 L20.7789398,7.09936575 C21.3749249,6.30514447 22.1037985,5.7662086 22.9655608,5.48255814 C23.827323,5.19890768 24.6125736,5.06518675 25.3213127,5.08139535 L25.3213127,8.63107822 C24.8380815,8.58245243 24.2501503,8.64323467 23.5575189,8.81342495 L23.5575189,8.81342495 Z M30.8543094,3.34302326 C30.4677245,3.7239253 30.000601,3.91437632 29.4529391,3.91437632 C28.8891694,3.91437632 28.4099651,3.7239253 28.0153264,3.34302326 C27.6206876,2.96212121 27.4233682,2.49612403 27.4233682,1.94503171 C27.4233682,1.41014799 27.6206876,0.952255109 28.0153264,0.571353066 C28.4099651,0.190451022 28.8891694,0 29.4529391,0 C30.000601,0 30.4677245,0.190451022 30.8543094,0.571353066 C31.2408943,0.952255109 31.4341868,1.41014799 31.4341868,1.94503171 C31.4341868,2.49612403 31.2408943,2.96212121 30.8543094,3.34302326 Z M27.6408222,5.34883721 L31.2650559,5.34883721 L31.2650559,18.6966173 L27.6408222,18.6966173 L27.6408222,5.34883721 Z M45.9673639,6.56448203 C46.7969107,7.55320648 47.2116841,8.96335447 47.2116841,10.794926 L47.2116841,18.6966173 L43.5149657,18.6966173 L43.5149657,10.794926 C43.5149657,8.99577167 42.6612574,8.0961945 40.9538406,8.0961945 C40.2934247,8.0961945 39.6974396,8.35958421 39.1658853,8.88636364 C38.634331,9.41314306 38.3846616,10.3248767 38.416877,11.6215645 L38.416877,18.6966173 L34.8168049,18.6966173 L34.8168049,5.32452431 L38.416877,5.32452431 L38.416877,6.51585624 C38.8517851,6.0782241 39.399447,5.72973925 40.059863,5.47040169 C40.7202789,5.21106413 41.3565332,5.08139535 41.968626,5.08139535 C43.8049044,5.08139535 45.137817,5.57575758 45.9673639,6.56448203 Z M55.2091598,13.9312896 C55.2091598,14.4985906 55.305806,14.972692 55.4990984,15.3535941 C55.6923909,15.7344961 56.1434067,15.9249471 56.8521457,15.9249471 C57.1742998,15.9249471 57.4803462,15.9087385 57.7702849,15.8763214 L57.7702849,18.9397463 C57.1904075,19.0045807 56.6507994,19.0369979 56.1514605,19.0369979 C55.1205674,19.0369979 54.2869936,18.9519027 53.6507393,18.7817125 C53.0144849,18.6115222 52.519173,18.2832981 52.1648035,17.7970402 C51.8104339,17.3107822 51.6332492,16.6138125 51.6332492,15.7061311 L51.6332492,8.29069767 L50.0144248,8.29069767 L50.0144248,5.10570825 L51.6332492,5.10570825 L51.6332492,1.53171247 L55.2091598,1.53171247 L55.2091598,5.10570825 L57.8669311,5.10570825 L57.8669311,8.29069767 L55.2091598,8.29069767 L55.2091598,13.9312896 L55.2091598,13.9312896 Z M80.4700685,6.58879493 C81.3801539,7.59372798 81.8351965,8.99577167 81.8351965,10.794926 L81.8351965,18.6966173 L78.1868013,18.6966173 L78.1868013,10.794926 C78.1868013,9.83861875 77.9492126,9.14975335 77.4740353,8.72832981 C76.998858,8.30690627 76.3746845,8.0961945 75.6015146,8.0961945 C74.9572064,8.0961945 74.377329,8.33932347 73.8618824,8.8255814 C73.3464359,9.31183932 73.0806587,10.1222692 73.064551,11.256871 L73.064551,18.6966173 L69.4161558,18.6966173 L69.4161558,10.794926 C69.4161558,9.83861875 69.1785671,9.14975335 68.7033898,8.72832981 C68.2282125,8.30690627 67.6120928,8.0961945 66.8550307,8.0961945 C66.1623993,8.0961945 65.5623873,8.35553206 65.0549946,8.87420719 C64.5476019,9.39288231 64.2939055,10.3086681 64.2939055,11.6215645 L64.269744,18.6966173 L60.6696718,18.6966173 L60.6696718,5.32452431 L64.269744,5.32452431 L64.269744,6.54016913 C64.7368674,6.1187456 65.3006371,5.77026075 65.961053,5.49471459 C66.6214689,5.21916843 67.2255079,5.08139535 67.7731699,5.08139535 C69.6416637,5.08139535 71.0671956,5.68921776 72.0497656,6.90486258 C72.5491045,6.33756166 73.1692511,5.89182523 73.9102056,5.56765328 C74.65116,5.24348132 75.4565453,5.08139535 76.3263613,5.08139535 C78.1787474,5.08139535 79.5599832,5.58386187 80.4700685,6.58879493 Z M88.9749369,18.3805497 C87.8715591,17.9429175 86.9252314,17.2013742 86.1359538,16.1559197 C85.3466763,15.1104651 84.9520375,13.7448908 84.9520375,12.0591966 C84.9520375,10.3735025 85.3507032,9.01198027 86.1480346,7.97463002 C86.945366,6.93727977 87.8997476,6.19978858 89.0111792,5.76215645 C90.1226109,5.32452431 91.1776656,5.10570825 92.1763433,5.10570825 C93.3360981,5.10570825 94.4394759,5.36504581 95.4864767,5.88372093 C96.5334776,6.40239605 97.3912129,7.16420014 98.0596827,8.16913319 C98.7281524,9.17406624 99.078495,10.3653982 99.1107104,11.743129 C99.1107104,12.1645525 99.1026566,12.5292459 99.0865489,12.8372093 C99.0704412,13.1451727 99.0543335,13.3396758 99.0382257,13.4207188 L88.5521096,13.4207188 C88.7454021,14.3608175 89.2286332,15.0010571 90.0018031,15.3414376 C90.774973,15.6818182 91.4998197,15.8520085 92.1763433,15.8520085 C93.0461594,15.8520085 93.7387907,15.6939746 94.2542373,15.377907 C94.7696839,15.0618393 95.2126458,14.701198 95.583123,14.2959831 L98.3858637,15.9249471 C96.8717394,17.9996476 94.8018993,19.0369979 92.1763433,19.0369979 C91.1454502,19.0369979 90.0783147,18.8181818 88.9749369,18.3805497 L88.9749369,18.3805497 Z M89.7118644,9.03224101 C89.0836639,9.52660324 88.7292944,10.1303735 88.6487559,10.8435518 L95.2931843,10.8435518 C95.2448612,10.4221283 95.0837841,10.0169133 94.8099531,9.62790698 C94.5361221,9.23890063 94.1696718,8.91878083 93.7106022,8.66754757 C93.2515326,8.41631431 92.7320591,8.29069767 92.1521818,8.29069767 C91.153504,8.29069767 90.3400649,8.53787879 89.7118644,9.03224101 L89.7118644,9.03224101 Z M104.341688,18.3197674 C103.947049,18.7006695 103.475899,18.8911205 102.928237,18.8911205 C102.380575,18.8911205 101.913451,18.7006695 101.526866,18.3197674 C101.140281,17.9388654 100.946989,17.4809725 100.946989,16.9460888 C100.946989,16.4274137 101.140281,15.9735729 101.526866,15.5845666 C101.913451,15.1955603 102.380575,15.0010571 102.928237,15.0010571 C103.475899,15.0010571 103.947049,15.1955603 104.341688,15.5845666 C104.736326,15.9735729 104.933646,16.4274137 104.933646,16.9460888 C104.933646,17.4809725 104.736326,17.9388654 104.341688,18.3197674 Z M105.513523,5.37315011 L109.524342,5.37315011 L112.617021,11.9133192 L115.709701,5.37315011 L119.744681,5.37315011 L112.617021,19.2801268 L105.513523,5.37315011 Z M132.75568,6.56448203 C133.585227,7.55320648 134,8.96335447 134,10.794926 L134,18.6966173 L130.303282,18.6966173 L130.303282,10.794926 C130.303282,8.99577167 129.449573,8.0961945 127.742157,8.0961945 C127.081741,8.0961945 126.485755,8.35958421 125.954201,8.88636364 C125.422647,9.41314306 125.172978,10.3248767 125.205193,11.6215645 L125.205193,18.6966173 L121.605121,18.6966173 L121.605121,5.32452431 L125.205193,5.32452431 L125.205193,6.51585624 C125.640101,6.0782241 126.187763,5.72973925 126.848179,5.47040169 C127.508595,5.21106413 128.144849,5.08139535 128.756942,5.08139535 C130.59322,5.08139535 131.926133,5.57575758 132.75568,6.56448203 L132.75568,6.56448203 Z" id="Shape"></path>
            </g>
        </g>
    </g>
</svg>